<?xml version="1.0" encoding="utf-8"?>
<svg xmlns="http://www.w3.org/2000/svg" xmlns:xlink="http://www.w3.org/1999/xlink" version= "1.1" width="1073px" height="767px" viewBox="-177 328 1073 767">
<g id="layer1">
<g style="fill:rgb(118,184,188); fill-opacity:1.0; stroke-linejoin: miter">
<path d="M-177.00102,326.7555C-177.3308,326.7555,-177.64706,326.8865,-177.88025,327.1197C-178.11343,327.35287,-178.24443,327.66913,-178.24443,327.9989L-178.24342,1094.9998C-178.24342,1095.6865,-177.68672,1096.2432,-177.00002,1096.2432L896.00085,1096.2441C896.3307,1096.2441,896.647,1096.1133,896.8801,1095.8801C897.1133,1095.647,897.24426,1095.3306,897.24426,1095.0007L897.2433,327.9999C897.2433,327.3132,896.68665,326.7565,895.9999,326.7565L-177.00102,326.7555 Z"/>
</g>
<g style="fill:rgb(18,145,151); fill-opacity:1.0; stroke-linejoin: miter">
<path d="M421.36484,806.35614C419.5789,939.27655,310.37814,1045.5829,177.45808,1043.7987C44.537144,1042.0145,-61.768745,932.8147,-59.98369,799.894C-58.198727,666.9722,51.00128,560.6646,183.92229,562.4504C316.84375,564.2345,423.15024,673.4355,421.36484,806.35614 Z"/>
</g>
<g style="fill:rgb(148,224,92); fill-opacity:1.0; stroke-linejoin: miter">
<path d="M308.3342,698.8643C308.3342,698.8643,256.29498,708.8975,237.84795,698.68195C237.84795,698.68195,225.66417,682.4311,190.61157,695.7585C190.61157,695.7585,128.93411,731.7052,127.639496,768.48303C127.639496,768.48303,109.62708,841.06195,173.79526,851.878C173.79526,851.878,241.48984,830.5663,249.66,856.73236C249.66,856.73236,251.55844,888.9538,257.67062,895.93C257.67062,895.93,267.53244,910.86896,266.64304,919.8038C266.64304,919.8038,259.2548,949.59,268.26355,972.7212C268.26355,972.7212,274.17798,992.72424,273.32593,998.84546C273.32593,998.84546,332.44937,982.7671,351.77197,927.8486C351.77197,927.8486,363.13953,889.68097,364.04248,879.7243C364.04248,879.7243,380.12585,835.4867,384.1909,821.75037C384.1909,821.75037,398.69434,780.5506,375.36914,785.6136C375.36914,785.6136,359.29672,770.0588,347.84402,758.4035C336.36685,746.75336,314.493,702.7752,308.3342,698.8643 Z"/>
</g>
<g style="fill:rgb(148,224,92); fill-opacity:1.0; stroke-linejoin: miter">
<path d="M359.4695,757.0401L295.194,696.3846C295.194,696.3846,309.3063,684.316,304.75638,677.3664C300.20758,670.39526,290.00876,679.4578,281.48047,679.34357C272.9734,679.2292,261.2588,685.9677,256.69232,679.76605C252.12619,673.57263,249.01123,675.06305,244.30273,678.8433C239.60295,682.61053,231.00023,688.63324,230.27324,684.7802C229.55528,680.94,215.58646,682.2934,214.86862,678.4484C214.15103,674.60284,217.36676,663.92004,210.36969,666.1229C203.3935,668.3185,193.20087,675.868,191.60266,679.669C190.00507,683.48285,184.43884,694.89716,178.99786,694.82355C173.57231,694.75104,159.59062,697.6296,157.3275,692.99945C155.06389,688.3702,150.62146,672.97064,155.33917,668.45013C160.04205,663.906,182.71779,669.07745,181.73506,663.4413C180.76631,657.81323,178.24898,645.4429,181.69032,643.73315C185.1465,642.03674,194.69028,622.2279,200.93204,620.0144C207.14447,617.80096,223.30975,626.44806,225.71315,621.1114C225.71315,621.1114,226.69826,605.02936,223.62885,602.68536C220.55707,600.3409,218.31122,593.43036,212.91772,594.09894C207.45337,594.795,205.0633,600.13885,208.91193,602.48773C212.77393,604.83624,215.73138,614.075,213.40619,614.0439C211.05981,614.01263,190.14027,615.265,189.4355,609.8994C188.72267,604.521,192.00046,591.52844,199.01987,587.03015C206.08435,582.53375,220.77582,583.4869,225.39406,585.85126C230.02711,588.21063,235.4991,583.68463,237.11256,579.8769C238.69661,576.07587,215.30676,562.9283,208.32684,562.835C208.32684,562.835,391.7412,579.0027,420.73325,767.13434C420.73325,767.13434,402.04633,702.4276,388.92676,698.4215C388.92676,698.4215,381.89142,702.9264,377.2527,702.0946C372.61462,701.2628,349.5732,686.3838,347.97324,690.20544C346.36026,694.0137,358.58444,707.20557,371.76196,708.90784C384.88104,710.62537,385.65308,712.1681,386.31622,719.0792C387.00812,725.9771,389.18732,736.74615,387.56183,743.61115C385.90186,750.48505,376.33252,771.05634,359.4695,757.0401 Z"/>
</g>
<g style="fill:rgb(148,224,92); fill-opacity:1.0; stroke-linejoin: miter">
<path d="M169.17012,618.0571C169.17012,618.0571,162.93713,621.8032,159.75525,627.11426C156.57501,632.4407,156.51324,637.0397,156.51324,637.0397C156.51324,637.0397,160.41943,639.3811,164.38275,639.44775C168.36256,639.5145,179.00746,635.8214,179.07942,630.45325C179.1515,625.0856,169.17012,618.0571,169.17012,618.0571 Z"/>
</g>
<g style="fill:rgb(148,224,92); fill-opacity:1.0; stroke-linejoin: miter">
<path d="M160.49603,571.9458C160.49603,571.9458,141.60107,593.92017,132.28087,596.09766C122.944565,598.2744,107.35574,605.71814,103.44833,608.746C99.52823,611.7595,86.4313,606.21985,94.25649,600.1924C102.09787,594.1522,123.18144,580.63586,118.56657,579.05457C113.93833,577.46704,92.82345,591.75134,84.22683,597.761C75.60872,603.77747,68.51941,612.8599,64.5863,618.94525C60.611206,625.02484,61.17981,641.1281,52.624447,644.0798C44.033745,647.0301,6.651279,661.8525,-5.8717985,672.4239C-18.415289,682.9802,-31.871197,690.7174,-37.456375,701.374C-43.012405,712.032,-34.483562,684.28394,-29.552532,674.0707C-29.552532,674.0707,4.1810627,615.8378,79.820694,580.05164C79.807144,580.0613,137.32257,566.2795,160.49603,571.9458 Z"/>
</g>
<g style="fill:rgb(148,224,92); fill-opacity:1.0; stroke-linejoin: miter">
<path d="M-60.030922,838.78186C-60.030922,838.78186,-67.233505,797.29,-58.66787,793.5766C-50.10387,789.86224,-47.516098,789.08417,-40.099533,796.8925C-32.724438,804.69415,-22.580359,817.8217,-18.807652,824.7745C-14.991978,831.7149,-1.1651003,840.3284,-1.2371829,845.6901C-1.309174,851.0578,-4.592042,864.04987,-1.5664982,870.21576C1.4299625,876.38885,6.0705886,877.2204,13.016696,880.37994C19.949223,883.53217,33.05668,888.30145,40.6934,895.3143C48.344646,902.3181,59.09825,910.8849,56.643173,920.0504C54.189007,929.21704,49.361065,942.942,50.83726,948.31714C52.31132,953.70544,57.61515,962.97046,51.374428,966.729C45.112827,970.4758,40.47965,969.65796,41.166782,976.5477C41.858555,983.4592,49.335243,1005.0027,51.601173,1008.8628C51.597694,1008.8606,-44.440556,966.45703,-60.030922,838.78186 Z"/>
</g>
<g style="fill:rgb(255,81,0); fill-opacity:0.99607843; stroke-linejoin: miter">
<path d="M465.42908,695.86816L465.42908,695.8694L465.42908,695.87085L465.42908,695.86816 Z"/>
</g>
<g style="fill:rgb(194,194,194); fill-opacity:1.0; stroke-linejoin: miter">
<path d="M414.11465,822.4752L414.11465,822.4762L414.11465,822.4757L414.11465,822.4752L414.11465,822.4762L414.11465,822.4752L414.11465,822.4757Q414.11465,822.4752,414.11465,822.4752 Z"/>
</g>
<g style="fill:rgb(60,70,79); fill-opacity:1.0; stroke-linejoin: miter">
<path d="M509.378,700.76953L496.23218,683.1589L483.08542,665.5474L698.15045,505.0034Q711.2968,522.61414,724.44324,540.2249Q616.9109,620.497,509.378,700.76953"/>
</g>
<g style="fill:rgb(227,237,242); fill-opacity:0.99607843; stroke-linejoin: miter">
<path d="M491.98236,663.889L501.61557,677.0345L511.24884,690.1801Q611.0842,617.0227,710.91986,543.86487Q701.28723,530.719,691.6544,517.57275Q591.81836,590.73096,491.98236,663.889"/>
</g>
<g style="fill:rgb(60,70,79); fill-opacity:1.0; stroke-linejoin: miter">
<path d="M745.2989,573.89325L708.5502,524.6645L671.801,475.4356Q675.69244,472.53125,679.58307,469.6266Q716.33246,518.8553,753.0811,568.084Q749.1901,570.9889,745.2989,573.89325"/>
</g>
<g style="fill:rgb(60,70,79); fill-opacity:1.0; stroke-linejoin: miter">
<path d="M718.03973,531.40186L711.4145,522.5263L704.78925,513.65076Q741.32684,486.37543,777.8647,459.10025Q784.4906,467.97546,791.11597,476.85077Q754.578,504.1263,718.03973,531.40186"/>
</g>
<g style="fill:rgb(60,70,79); fill-opacity:1.0; stroke-linejoin: miter">
<path d="M811.16223,496.1254L788.12396,465.26306L765.0859,434.40048Q760.44257,437.86673,755.79926,441.33234Q778.838,472.19495,801.8768,503.05685Q806.5195,499.59128,811.16223,496.1254"/>
</g>
<g style="fill:rgb(60,70,79); fill-opacity:1.0; stroke-linejoin: miter">
<path d="M416.38248,744.3507L415.6226,743.3325L414.86282,742.31433Q452.36533,714.31934,489.8681,686.3241Q490.6281,687.34186,491.38837,688.3599Q453.88547,716.3554,416.38248,744.3507"/>
</g>
<g style="fill:rgb(60,70,79); fill-opacity:1.0; stroke-linejoin: miter">
<path d="M462.52057,713.93445L459.83124,710.3315L457.1419,706.7289Q463.8121,701.7497,470.48203,696.77045Q473.1717,700.3731,475.86108,703.9757Q469.19095,708.95514,462.52057,713.93445"/>
</g>
<g style="fill:rgb(60,70,79); fill-opacity:1.0; stroke-linejoin: miter">
<path d="M490.99658,700.6425L484.48892,691.92474L477.98114,683.2071Q481.2123,680.79474,484.4435,678.3826Q490.95148,687.1005,497.4593,695.81824Q494.2281,698.2305,490.99658,700.6425"/>
</g>
<g style="fill:rgb(60,70,79); fill-opacity:1.0; stroke-linejoin: miter">
<path d="M472.94363,710.9886L467.93674,704.2812L462.92944,697.5735Q481.48734,683.7203,500.04495,669.867Q505.05185,676.57416,510.0595,683.2818Q491.5014,697.1353,472.94363,710.9886"/>
</g>
<g style="fill:rgb(0,0,0); fill-opacity:0.4392157; stroke-linejoin: miter">
<path d="M704.33875,829.5675C704.34064,829.5593,704.3426,829.5509,704.3444,829.54285L704.3485,829.5394C704.34705,829.54846,704.3451,829.5565,704.3431,829.5648 Z"/>
</g>
<g style="fill:rgb(125,139,150); fill-opacity:0.99607843; stroke-linejoin: miter">
<path d="M624.52,752.5055L624.5196,752.5056L624.52,752.5055L624.5196,752.5056L624.52,752.5055 Z"/>
</g>
<g style="fill:rgb(34,43,50); fill-opacity:1.0; stroke-linejoin: miter">
<path d="M660.2379,734.26965L719.2465,734.27L719.2465,773.8296L660.2379,773.8301L660.2379,734.26965 Z"/>
</g>
<g style="fill:rgb(226,236,241); fill-opacity:1.0; stroke-linejoin: miter">
<path d="M661.9257,753.2589L661.9257,753.2594L717.7547,752.40735L745.85693,778.4999L744.0773,950.87854C728.36316,956.12354,712.649,961.36865,694.50836,962.0901C692.9989,962.15015,691.47253,962.17883,689.9309,962.17883C672.94507,962.17883,654.0894,958.6931,635.23376,955.2075L635.5982,772.5653 Z"/>
</g>
<g style="fill:rgb(34,43,50); fill-opacity:1.0; stroke-linejoin: miter">
<path d="M658.37964,740.72925C657.4393,741.1012,657.23535,742.8069,658.0019,743.56177C658.62286,744.17334,721.0433,743.698,721.65485,743.07715C722.3381,742.3833,722.1805,740.68054,721.3786,740.2495C720.46954,739.7848,659.53455,740.2488,658.37964,740.72925 Z"/>
</g>
<g style="fill:rgb(34,43,50); fill-opacity:1.0; stroke-linejoin: miter">
<path d="M659.0277,744.8965C659.03125,745.36816,662.6929,745.4125,689.8435,745.2057C716.9911,744.999,720.65314,744.8988,720.64954,744.4271C720.64606,743.95557,716.98285,743.9114,689.8353,744.1179C662.68463,744.3248,659.02405,744.42505,659.0277,744.8965 Z"/>
</g>
<g style="fill:rgb(34,43,50); fill-opacity:1.0; stroke-linejoin: miter">
<path d="M657.81067,746.9337C657.2728,747.73645,657.4247,748.6786,658.1167,749.1449C658.59076,749.46814,720.721,749.06726,721.5533,748.734C722.2398,748.4741,722.2989,746.7351,721.678,746.12366C721.3486,745.7991,713.7725,745.7467,689.81134,745.9292L658.3495,746.2599L657.81067,746.9337 Z"/>
</g>
<g style="fill:rgb(60,70,79); fill-opacity:1.0; stroke-linejoin: miter">
<path d="M659.32697,750.76416C659.2543,750.90955,658.9724,751.8894,658.72736,752.9446C658.23724,755.26855,656.44116,757.6404,654.1324,759.14197C653.1953,759.76526,650.45264,761.2733,648.0315,762.4896C638.57117,767.2715,635.3331,770.63196,632.7472,778.48047L631.9331,780.98926L632.4575,864.14624C633.0435,955.3827,632.88574,949.1113,635.16833,953.6626C636.63995,956.58496,640.5861,960.54456,643.569,962.0813C648.48334,964.5812,646.2346,964.48816,691.54596,964.14307C730.1498,963.84863,732.4682,963.7965,734.89343,963.1239C740.7529,961.5574,745.14636,957.7888,747.8951,952.115L749.5729,948.6565L748.9328,864.5604L748.29285,780.4647L747.4391,777.7516C746.1759,773.92236,744.74255,771.286,742.55066,768.9447C740.1016,766.2814,737.47736,764.55945,731.72925,761.7799C723.94257,757.9939,721.9355,756.19824,721.037,752.35986L720.5867,750.40784L690.5741,750.7274C674.0791,750.7621,660.34094,750.7565,660.0493,750.65186C659.75916,750.54407,659.43414,750.5842,659.32697,750.76416 Z M713.1309,756.8816C714.6465,760.6052,717.4248,763.772,721.1777,766.0984C722.27075,766.7787,725.5442,768.4956,728.4211,769.96094C736.31586,773.8873,738.29004,776.1172,739.4272,782.6011C739.69403,784.1931,739.99335,809.2743,740.35175,865.89294L740.86,946.91174L740.03723,948.4774C738.7869,950.8795,736.8806,952.8152,734.64105,953.92017L732.5831,954.94824L701.9537,955.36414C685.1,955.59924,666.61395,955.74023,660.81274,955.67737L650.2997,955.57825L648.2264,954.5786C645.9702,953.5078,644.03314,951.6017,642.7464,949.2189L641.9029,947.6658L641.17615,866.64844C640.67303,810.03064,640.5906,784.94775,640.83154,783.3519C641.9054,776.77893,643.77374,774.59216,651.9711,770.3607C655.0401,768.7433,658.4699,766.8307,659.5881,766.0614C662.5077,764.0426,665.0594,760.9828,666.4112,757.85364L667.587,755.15967L689.9188,755.08386L712.246,754.8196L713.1309,756.8816 Z M670.0651,956.83923C670.0657,956.91174,669.77856,957.2029,669.4536,957.4602C668.8772,957.9364,668.8407,957.8989,669.30786,957.3168C669.775,956.73145,670.06287,956.547,670.0651,956.83923 Z M664.31036,962.68396C664.3109,962.75635,664.0223,963.04785,663.6988,963.30493C663.12244,963.7811,663.0859,963.7435,663.55145,963.1615C664.0187,962.5762,664.3081,962.3948,664.31036,962.68396 Z"/>
</g>
<g style="fill:rgb(255,255,255); fill-opacity:0.99607843; stroke-linejoin: miter">
<path d="M737.3555,964.99036L737.35547,964.99L737.3555,964.99036L737.35547,964.99L737.3555,964.99036 Z"/>
</g>
<g style="fill:rgb(14,126,200); fill-opacity:1.0; stroke-linejoin: miter">
<path d="M642.56494,706.45483L739.3955,706.4552L739.3955,722.69324L642.56494,722.6937L642.56494,706.45483 Z"/>
</g>
<g style="fill:rgb(60,70,79); fill-opacity:1.0; stroke-linejoin: miter">
<path d="M649.23834,721.38354L732.72205,721.38403L732.72205,741.2888L649.23834,741.2893L649.23834,721.38354 Z"/>
</g>
<g style="fill:rgb(255,255,255); fill-opacity:1.0; stroke-linejoin: miter">
<path d="M631.4558,809.74976L749.3067,809.7501L749.3067,920.2191L631.4558,920.2196L631.4558,809.74976 Z"/>
</g>
<g style="fill:rgb(0,0,0); fill-opacity:0.99607843; stroke-linejoin: miter">
<path d="M637.70667,859.6122L742.3072,859.61255L742.3072,896.011L637.70667,896.01135L637.70667,859.6122 Z"/>
</g>
<g style="fill:rgb(0,0,0); fill-opacity:1.0; stroke-linejoin: miter">
<path d="M730.1352,837.31824Q730.55145,837.31824,730.85815,837.625Q731.1648,837.9098,731.1648,838.3478Q731.1648,838.5012,731.12103,838.65454Q731.07715,838.786,731.0115,838.8955L730.98956,838.93933Q730.8362,839.1583,730.5953,839.2678Q730.37616,839.37744,730.11334,839.37744L729.9819,839.3779Q729.93805,839.37744,729.8724,839.35547Q729.7409,839.3336,729.6095,839.246Q729.5,839.1803,729.39044,839.09265Q729.2809,838.98303,729.21515,838.8517Q729.1494,838.7202,729.1276,838.567Q729.10565,838.5231,729.10565,838.47925Q729.10565,838.4354,729.10565,838.3917Q729.08374,837.97546,729.3685,837.647Q729.6533,837.31824,730.1352,837.31824 Z M711.5372,838.8517L711.5372,842.0281L716.1812,842.02844L716.1812,838.8517 Z M665.60065,837.4059Q666.5864,837.4059,667.28735,838.1068Q667.98834,838.80786,667.98834,839.7936Q667.98834,840.7794,667.28735,841.48035Q666.5864,842.1814,665.60065,842.1814Q664.61487,842.1814,663.9139,841.48035Q663.2348,840.7794,663.2348,839.7936Q663.2348,838.80786,663.9358,838.1068Q664.61487,837.4059,665.60065,837.4059 Z M703.36633,837.844Q704.65875,837.844,705.4474,838.7202Q706.21405,839.59644,706.21405,840.6918Q706.21405,841.2175,706.0169,841.7433Q705.81976,842.2471,705.38165,842.6852Q704.7245,843.3424,703.93585,843.4519Q703.3225,843.5221,702.6812,843.5221Q702.5208,843.5221,702.3586,843.5176L701.8986,843.51807L701.8986,837.844 Z M665.60065,832.76184Q662.68713,832.76184,660.62805,834.82104Q658.56885,836.8801,658.56885,839.7936Q658.56885,842.70715,660.62805,844.76624Q662.68713,846.82544,665.60065,846.82544Q668.5141,846.82544,670.59515,844.76624Q672.6543,842.70715,672.6543,839.7936Q672.6543,836.8801,670.57324,834.82104Q668.5141,832.76184,665.60065,832.76184 Z M691.53705,833.1561L691.53705,848.16174L696.18115,848.1621L696.18115,833.1561 Z M697.2546,833.178L697.2546,848.16174L703.36633,848.1621Q706.455,848.16174,708.6675,845.9492Q710.8581,843.75854,710.8581,840.6699Q710.8581,837.58105,708.64557,835.36865Q706.455,833.178,703.36633,833.178 Z M716.7508,833.178L716.7508,837.822L718.8756,837.8225L718.8756,848.16174L723.51965,848.1621L723.51965,833.178 Z M656.11536,832.6304Q652.8076,832.6304,650.44183,834.9962Q648.0979,837.3402,648.0979,840.64795Q648.0979,843.9557,650.4637,846.32166Q652.8076,848.6655,656.11536,848.6655Q656.59735,848.6655,657.0793,848.59973Q657.53925,848.53406,657.99927,848.4464L656.904,843.93384Q656.8164,843.9557,656.70685,843.97766Q656.6192,843.99963,656.5316,843.99963Q656.42206,844.0215,656.3345,844.0215L656.1373,844.022Q656.1083,844.022,656.07935,844.022Q654.7787,844.022,653.7715,843.0576Q652.7419,842.09375,652.7419,840.64795Q652.7419,839.2241,653.7715,838.26025Q654.801,837.2964,656.1373,837.2964Q656.3125,837.2964,656.5097,837.31824Q656.70685,837.3402,656.904,837.38403L657.99927,832.87134Q657.53925,832.76184,657.0574,832.69617Q656.59735,832.6304,656.11536,832.6304 Z M672.89526,833.1561L682.0737,849.08167L691.2523,833.1561L685.86346,833.1566L682.0737,839.7717L678.2622,833.1561 Z M730.1352,832.6742Q727.7694,832.6742,726.10455,834.339Q724.4397,836.0039,724.4397,838.3478Q724.4397,840.18787,725.5131,841.65564Q726.5646,843.10144,728.2075,843.71484L725.7322,847.92065L729.9819,849.8485Q730.3981,849.1255,730.96765,848.1836Q731.5153,847.26355,732.08484,846.2777Q733.1801,844.37195,734.1002,842.7947Q735.02026,841.2394,735.02026,841.2394Q735.39264,840.6041,735.6117,839.8594Q735.80884,839.1365,735.80884,838.3478Q735.80884,836.0039,734.144,834.339Q732.4792,832.6742,730.1352,832.6742 Z"/>
</g>
<g style="fill:rgb(255,255,255); fill-opacity:1.0; stroke-linejoin: miter">
<path d="M700.05743,863.1398L700.05743,865.73535L702.9015,865.7357L702.9015,863.1398 Z M724.7707,869.72534Q725.4196,869.72534,725.66815,870.07056Q725.9167,870.4158,726.08234,870.87134Q726.2342,871.327,726.2342,873.5359L726.2342,876.173L722.8654,876.17334L722.8654,873.63257Q722.8654,871.8102,723.1968,870.76086Q723.5281,869.72534,724.7707,869.72534 Z M668.99316,876.93225L668.99316,884.8157Q668.7861,885.34033,668.23376,885.796Q667.6815,886.2377,666.9084,886.2377Q666.13525,886.2377,665.8177,885.4922Q665.5002,884.7604,665.5002,882.9518L665.5002,881.0327Q665.5002,879.7212,665.8039,879.14136Q666.0939,878.5753,666.6737,878.14734Q667.25354,877.71924,668.99316,876.93225 Z M651.08636,867.6406L654.0271,888.3501L657.35443,888.35046L660.32275,867.6406L657.6996,867.6411L656.3604,879.2932L655.96,883.932L655.6977,883.9324L655.2144,879.307L653.7233,867.6406 Z M700.05743,867.6406L700.05743,888.3501L702.8877,888.35046L702.8877,867.6406 Z M713.31146,867.3783Q711.93085,867.3783,710.992,868.11Q710.067,868.828,709.79083,869.8358L709.79083,867.6406L706.9606,867.6411L706.9606,888.3501L709.79083,888.35046L709.79083,872.1277Q709.79083,870.9403,710.3569,870.3467Q710.9229,869.75305,711.779,869.75305Q712.63495,869.75305,713.11816,870.2776Q713.6014,870.80225,713.6014,871.85156L713.6014,888.3501L716.4317,888.35046L716.4317,871.83777Q716.4317,869.6288,715.5619,868.4967Q714.7059,867.3783,713.31146,867.3783 Z M667.41925,867.3921Q665.25165,867.3921,664.0781,868.63464Q662.90454,869.8772,662.90454,873.63257L662.90454,874.2263L665.72107,874.2267L665.72107,873.5083Q665.72107,871.3821,666.03864,870.5676Q666.35614,869.75305,667.295,869.75305Q668.22,869.75305,668.60657,870.2914Q668.99316,870.82996,668.99316,873.4945L668.99316,875.09607Q664.589,876.7114,663.6087,877.98157Q662.6423,879.23804,662.6423,881.0189L662.6423,883.03467Q662.66986,888.52954,666.1905,888.52954Q667.295,888.52954,668.0405,887.9083Q668.7861,887.3009,669.00696,886.5553L669.00696,888.3501L671.8511,888.35046L671.8511,874.2539Q671.8511,872.8042,671.7544,871.8102Q671.5335,869.4907,670.5532,868.4414Q669.58685,867.3921,667.41925,867.3921 Z M680.0105,867.3921Q677.84296,867.3921,676.72473,868.66223Q676.21387,869.2422,675.7997,870.49866Q675.3993,871.7412,675.3993,874.43335L675.3993,881.36414Q675.3993,883.3108,675.6202,884.7329Q676.24146,888.5985,679.8587,888.5985Q682.1505,888.5985,683.26886,887.287Q684.38715,885.97546,684.38715,881.73694L684.38715,880.3977L681.59827,880.3981L681.59827,882.39966Q681.59827,884.96765,681.1703,885.57495Q680.74225,886.1687,679.8173,886.1687Q678.89233,886.1687,678.5609,885.31274Q678.24335,884.4706,678.24335,882.34436L678.24335,873.5359Q678.24335,872.031,678.45044,871.17505Q678.768,869.822,680.121,869.822Q680.89417,870.04297,681.44635,870.9265Q681.59827,871.52014,681.59827,873.453L681.59827,875.2755L684.38715,875.2759L684.38715,873.8397Q684.37335,872.58325,684.29047,871.6721Q684.0696,869.5459,683.1308,868.469Q682.17816,867.3921,680.0105,867.3921 Z M692.16016,867.3921Q689.99255,867.3921,688.8742,868.66223Q688.36334,869.2422,687.94916,870.49866Q687.5488,871.7412,687.5488,874.43335L687.5488,881.36414Q687.5488,883.3108,687.7697,884.7329Q688.391,888.5985,692.00824,888.5985Q694.30005,888.5985,695.41846,887.287Q696.5368,885.97546,696.5368,881.73694L696.5368,880.3977L693.74786,880.3981L693.74786,882.39966Q693.74786,884.96765,693.3198,885.57495Q692.89185,886.1687,691.9668,886.1687Q691.0418,886.1687,690.71045,885.31274Q690.39294,884.4706,690.39294,882.34436L690.39294,873.5359Q690.39294,872.031,690.60004,871.17505Q690.91754,869.822,692.27057,869.822Q693.0437,870.04297,693.596,870.9265Q693.74786,871.52014,693.74786,873.453L693.74786,875.2755L696.5368,875.2759L696.5368,873.8397Q696.523,872.58325,696.4401,871.6721Q696.2192,869.5459,695.2804,868.469Q694.3277,867.3921,692.16016,867.3921 Z M724.70166,867.3921Q722.54785,867.3921,721.44336,868.60706Q720.03516,870.1395,720.03516,874.06055L720.03516,881.3779Q720.03516,884.19446,720.4079,885.4646Q720.78064,886.73474,721.2777,887.3146Q721.7609,887.89453,722.6031,888.2534Q723.43146,888.5985,724.8259,888.5985Q726.20654,888.5985,727.1454,888.0049Q728.0842,887.42505,728.55365,886.0996Q729.0093,884.7743,729.0093,881.4746L729.0093,880.59094L726.2342,880.5913L726.2342,882.2616Q726.2342,882.8828,726.22034,883.79407Q726.20654,884.6914,725.889,885.4646Q725.58527,886.2377,724.6602,886.2377Q723.73517,886.2377,723.30725,885.57495Q722.8793,884.91235,722.8793,882.2202L722.8793,878.0919L729.0645,878.0924L729.0645,874.1848Q729.0645,871.603,728.6227,870.0845Q727.82196,867.3921,724.70166,867.3921 Z"/>
</g>
<g style="fill:rgb(14,126,200); fill-opacity:0.99607843; stroke-linejoin: miter">
<path d="M655.89307,902.59106L726.90125,902.59143L726.90125,910.64954L655.89307,910.65L655.89307,902.59106 Z"/>
</g>
</g>
</svg>